HIERARCHY
ROOT Hips
{
	OFFSET 0.000000 71.427986 0.000000
	CHANNELS 6 Xposition Yposition Zposition Xrotation Yrotation Zrotation
	JOINT Pelvis
	{
		OFFSET 0.000000 0.000000 0.000000
		CHANNELS 3 Xrotation Yrotation Zrotation
		JOINT LeftUpLeg
		{
			OFFSET 6.797100 -2.508499 -1.318700
			CHANNELS 3 Xrotation Yrotation Zrotation
			JOINT LeftLeg
			{
				OFFSET 0.069008 -29.241863 0.690200
				CHANNELS 3 Xrotation Yrotation Zrotation
				JOINT LeftFoot
				{
					OFFSET -0.069008 -29.568123 -0.266800
					CHANNELS 3 Xrotation Yrotation Zrotation
					JOINT LeftToeBase
					{
						OFFSET 3.145500 -8.631000 16.059900
						CHANNELS 3 Xrotation Yrotation Zrotation
						End Site
						{
							OFFSET 0.000000 18.501587 0.000000
						}
					}
				}
			}
			JOINT Left_ShortSleeve
			{
				OFFSET 0.265923 -10.480953 1.153800
				CHANNELS 3 Xrotation Yrotation Zrotation
				End Site
				{
					OFFSET 1.725763 19.823879 0.000000
				}
			}
		}
		JOINT RightUpLeg
		{
			OFFSET -6.797100 -2.508499 -1.318700
			CHANNELS 3 Xrotation Yrotation Zrotation
			JOINT RightLeg
			{
				OFFSET -0.082453 -29.241932 0.688000
				CHANNELS 3 Xrotation Yrotation Zrotation
				JOINT RightFoot
				{
					OFFSET 0.082453 -29.568058 -0.264600
					CHANNELS 3 Xrotation Yrotation Zrotation
					JOINT RightToeBase
					{
						OFFSET -3.115300 -8.682800 16.113400
						CHANNELS 3 Xrotation Yrotation Zrotation
						End Site
						{
							OFFSET 0.000000 18.567114 0.000000
						}
					}
				}
			}
			JOINT Right_ShortSleeve
			{
				OFFSET -0.265923 -10.480953 1.153800
				CHANNELS 3 Xrotation Yrotation Zrotation
				End Site
				{
					OFFSET -1.725766 19.823910 0.000000
				}
			}
		}
	}
	JOINT Spine
	{
		OFFSET 0.000000 13.368103 0.470500
		CHANNELS 3 Xrotation Yrotation Zrotation
		JOINT Spine1
		{
			OFFSET 0.147000 13.837402 0.538800
			CHANNELS 3 Xrotation Yrotation Zrotation
			JOINT Spine2
			{
				OFFSET 0.168000 16.242897 -1.435500
				CHANNELS 3 Xrotation Yrotation Zrotation
				JOINT Neck
				{
					OFFSET 0.217200 18.631500 -1.679100
					CHANNELS 3 Xrotation Yrotation Zrotation
					JOINT Head
					{
						OFFSET 0.000000 6.599396 1.385900
						CHANNELS 3 Xrotation Yrotation Zrotation
						JOINT Hat
						{
							OFFSET -0.532200 27.220596 -10.096100
							CHANNELS 3 Xrotation Yrotation Zrotation
							End Site
							{
								OFFSET 0.000000 22.029861 0.000000
							}
						}
						JOINT HairD
						{
							OFFSET -10.777400 17.437393 -1.325900
							CHANNELS 3 Xrotation Yrotation Zrotation
							JOINT HairD1
							{
								OFFSET -3.290299 -11.051193 1.062200
								CHANNELS 3 Xrotation Yrotation Zrotation
								End Site
								{
									OFFSET 0.000000 11.579437 0.000000
								}
							}
						}
						JOINT HairB
						{
							OFFSET -10.777400 17.437393 1.467900
							CHANNELS 3 Xrotation Yrotation Zrotation
							JOINT HairB1
							{
								OFFSET -1.561200 -12.956299 3.590200
								CHANNELS 3 Xrotation Yrotation Zrotation
								End Site
								{
									OFFSET 0.000000 13.534866 0.000000
								}
							}
						}
						JOINT HairA
						{
							OFFSET 9.713100 17.437393 1.467900
							CHANNELS 3 Xrotation Yrotation Zrotation
							JOINT HairA1
							{
								OFFSET 1.561200 -12.956299 3.590200
								CHANNELS 3 Xrotation Yrotation Zrotation
								End Site
								{
									OFFSET 0.000000 13.534866 0.000000
								}
							}
						}
						JOINT HairC
						{
							OFFSET 9.713100 17.437393 -1.325900
							CHANNELS 3 Xrotation Yrotation Zrotation
							JOINT HairC1
							{
								OFFSET 3.290300 -11.051193 1.062200
								CHANNELS 3 Xrotation Yrotation Zrotation
								End Site
								{
									OFFSET 0.000000 11.579437 0.000000
								}
							}
						}
					}
				}
				JOINT LeftShoulder
				{
					OFFSET 5.101800 15.108002 -2.763700
					CHANNELS 3 Xrotation Yrotation Zrotation
					JOINT LeftArm
					{
						OFFSET 9.825497 2.506317 -1.597400
						CHANNELS 3 Xrotation Yrotation Zrotation
						JOINT LeftForeArm
						{
							OFFSET 21.966244 0.000000 0.000000
							CHANNELS 3 Xrotation Yrotation Zrotation
							JOINT LeftHand
							{
								OFFSET 33.879036 0.000000 0.000000
								CHANNELS 3 Xrotation Yrotation Zrotation
								JOINT LeftHandThumb1
								{
									OFFSET 6.715286 -2.359680 3.363841
									CHANNELS 3 Xrotation Yrotation Zrotation
									JOINT LeftHandThumb2
									{
										OFFSET 2.507072 -1.447464 1.447461
										CHANNELS 3 Xrotation Yrotation Zrotation
										JOINT LeftHandThumb3
										{
											OFFSET 2.898338 -1.673355 1.673357
											CHANNELS 3 Xrotation Yrotation Zrotation
											End Site
											{
												OFFSET -0.295959 3.727692 -0.131651
											}
										}
									}
								}
								JOINT LeftHandIndex1
								{
									OFFSET 14.190811 -0.254547 3.840278
									CHANNELS 3 Xrotation Yrotation Zrotation
									JOINT LeftHandIndex2
									{
										OFFSET 3.551727 0.000000 -0.000000
										CHANNELS 3 Xrotation Yrotation Zrotation
										JOINT LeftHandIndex3
										{
											OFFSET 2.894196 0.000000 0.000000
											CHANNELS 3 Xrotation Yrotation Zrotation
											End Site
											{
												OFFSET -1.000603 2.690872 0.366626
											}
										}
									}
								}
								JOINT LeftHandMiddle1
								{
									OFFSET 13.776489 0.000000 0.000000
									CHANNELS 3 Xrotation Yrotation Zrotation
									JOINT LeftHandMiddle2
									{
										OFFSET 3.438232 0.000000 0.000000
										CHANNELS 3 Xrotation Yrotation Zrotation
										JOINT LeftHandMiddle3
										{
											OFFSET 3.691551 0.000000 0.000000
											CHANNELS 3 Xrotation Yrotation Zrotation
											End Site
											{
												OFFSET -1.082298 3.499527 0.457670
											}
										}
									}
								}
								JOINT LeftHandRing1
								{
									OFFSET 13.966164 -0.268127 -3.067488
									CHANNELS 3 Xrotation Yrotation Zrotation
									JOINT LeftHandRing2
									{
										OFFSET 3.162567 0.000000 0.000000
										CHANNELS 3 Xrotation Yrotation Zrotation
										JOINT LeftHandRing3
										{
											OFFSET 3.324348 0.000000 0.000000
											CHANNELS 3 Xrotation Yrotation Zrotation
											End Site
											{
												OFFSET -0.861900 3.184998 0.405154
											}
										}
									}
								}
								JOINT LeftHandPinky1
								{
									OFFSET 13.131393 -0.168503 -5.746925
									CHANNELS 3 Xrotation Yrotation Zrotation
									JOINT LeftHandPinky2
									{
										OFFSET 2.849182 0.000000 0.000000
										CHANNELS 3 Xrotation Yrotation Zrotation
										JOINT LeftHandPinky3
										{
											OFFSET 2.805038 0.000000 0.000000
											CHANNELS 3 Xrotation Yrotation Zrotation
											End Site
											{
												OFFSET -0.882500 2.642609 0.325652
											}
										}
									}
								}
							}
							JOINT Left_Sleeve
							{
								OFFSET 6.592125 -0.646545 0.805568
								CHANNELS 3 Xrotation Yrotation Zrotation
								End Site
								{
									OFFSET -0.000179 20.275787 -0.000000
								}
							}
						}
					}
				}
				JOINT RightShoulder
				{
					OFFSET -5.731700 15.108002 -2.763700
					CHANNELS 3 Xrotation Yrotation Zrotation
					JOINT RightArm
					{
						OFFSET -9.825497 2.506317 -1.597400
						CHANNELS 3 Xrotation Yrotation Zrotation
						JOINT RightForeArm
						{
							OFFSET -21.966242 0.000000 0.000000
							CHANNELS 3 Xrotation Yrotation Zrotation
							JOINT RightHand
							{
								OFFSET -33.879032 0.000000 0.000000
								CHANNELS 3 Xrotation Yrotation Zrotation
								JOINT RightHandThumb1
								{
									OFFSET -6.715286 -2.359680 3.363841
									CHANNELS 3 Xrotation Yrotation Zrotation
									JOINT RightHandThumb2
									{
										OFFSET -2.507072 -1.447464 1.447461
										CHANNELS 3 Xrotation Yrotation Zrotation
										JOINT RightHandThumb3
										{
											OFFSET -2.898338 -1.673355 1.673357
											CHANNELS 3 Xrotation Yrotation Zrotation
											End Site
											{
												OFFSET 0.295959 3.727692 -0.131651
											}
										}
									}
								}
								JOINT RightHandIndex1
								{
									OFFSET -14.190811 -0.254547 3.840278
									CHANNELS 3 Xrotation Yrotation Zrotation
									JOINT RightHandIndex2
									{
										OFFSET -3.551727 0.000000 -0.000000
										CHANNELS 3 Xrotation Yrotation Zrotation
										JOINT RightHandIndex3
										{
											OFFSET -2.894196 0.000000 0.000000
											CHANNELS 3 Xrotation Yrotation Zrotation
											End Site
											{
												OFFSET 1.000603 2.690872 0.366626
											}
										}
									}
								}
								JOINT RightHandMiddle1
								{
									OFFSET -13.776489 0.000000 0.000000
									CHANNELS 3 Xrotation Yrotation Zrotation
									JOINT RightHandMiddle2
									{
										OFFSET -3.438232 0.000000 0.000000
										CHANNELS 3 Xrotation Yrotation Zrotation
										JOINT RightHandMiddle3
										{
											OFFSET -3.691551 0.000000 0.000000
											CHANNELS 3 Xrotation Yrotation Zrotation
											End Site
											{
												OFFSET 1.082298 3.499527 0.457670
											}
										}
									}
								}
								JOINT RightHandRing1
								{
									OFFSET -13.966164 -0.268127 -3.067488
									CHANNELS 3 Xrotation Yrotation Zrotation
									JOINT RightHandRing2
									{
										OFFSET -3.162567 0.000000 0.000000
										CHANNELS 3 Xrotation Yrotation Zrotation
										JOINT RightHandRing3
										{
											OFFSET -3.324348 0.000000 0.000000
											CHANNELS 3 Xrotation Yrotation Zrotation
											End Site
											{
												OFFSET 0.861900 3.184998 0.405154
											}
										}
									}
								}
								JOINT RightHandPinky1
								{
									OFFSET -13.131393 -0.168503 -5.746925
									CHANNELS 3 Xrotation Yrotation Zrotation
									JOINT RightHandPinky2
									{
										OFFSET -2.849182 0.000000 0.000000
										CHANNELS 3 Xrotation Yrotation Zrotation
										JOINT RightHandPinky3
										{
											OFFSET -2.805038 0.000000 0.000000
											CHANNELS 3 Xrotation Yrotation Zrotation
											End Site
											{
												OFFSET 0.882500 2.642609 0.325652
											}
										}
									}
								}
							}
							JOINT Right_Sleeve
							{
								OFFSET -6.592125 -0.646545 0.805568
								CHANNELS 3 Xrotation Yrotation Zrotation
								End Site
								{
									OFFSET 0.000179 20.275787 -0.000000
								}
							}
						}
					}
				}
				JOINT Bind_Right_JacketString
				{
					OFFSET -3.534800 11.969597 7.200700
					CHANNELS 3 Xrotation Yrotation Zrotation
					JOINT Bind_Right_JacketString1
					{
						OFFSET -0.319900 -6.102600 2.794100
						CHANNELS 3 Xrotation Yrotation Zrotation
						End Site
						{
							OFFSET 0.000000 6.719452 0.000000
						}
					}
				}
				JOINT Bind_Left_JacketString
				{
					OFFSET 2.904800 11.969597 7.200700
					CHANNELS 3 Xrotation Yrotation Zrotation
					JOINT Bind_Left_JacketString1
					{
						OFFSET 0.364800 -5.904503 3.186800
						CHANNELS 3 Xrotation Yrotation Zrotation
						End Site
						{
							OFFSET 0.000000 6.719513 0.000000
						}
					}
				}
				JOINT HairE
				{
					OFFSET 5.915200 17.612701 -11.592200
					CHANNELS 3 Xrotation Yrotation Zrotation
					JOINT HairE1
					{
						OFFSET 0.289200 -7.171898 -1.284500
						CHANNELS 3 Xrotation Yrotation Zrotation
						End Site
						{
							OFFSET 0.000000 7.291756 0.000000
						}
					}
				}
				JOINT HairF
				{
					OFFSET -0.864800 17.612701 -11.592200
					CHANNELS 3 Xrotation Yrotation Zrotation
					JOINT HairF1
					{
						OFFSET 0.000000 -14.087097 -2.127501
						CHANNELS 3 Xrotation Yrotation Zrotation
						End Site
						{
							OFFSET 0.000000 14.246841 0.000000
						}
					}
				}
				JOINT HairG
				{
					OFFSET -8.087700 17.612701 -11.592200
					CHANNELS 3 Xrotation Yrotation Zrotation
					JOINT HairG1
					{
						OFFSET -0.293600 -6.081398 -0.910100
						CHANNELS 3 Xrotation Yrotation Zrotation
						End Site
						{
							OFFSET 0.000000 6.156120 0.000000
						}
					}
				}
			}
		}
	}
	JOINT Pouch
	{
		OFFSET 0.000000 4.394501 10.847300
		CHANNELS 3 Xrotation Yrotation Zrotation
		End Site
		{
			OFFSET 0.000000 21.880577 0.000000
		}
	}
	JOINT Bag
	{
		OFFSET -13.229000 4.813004 -0.593300
		CHANNELS 3 Xrotation Yrotation Zrotation
		End Site
		{
			OFFSET 0.000000 21.880577 0.000000
		}
	}
	JOINT OccupyGuyFacialAnim_Joint
	{
		OFFSET 1.000000 -70.206398 -1.655000
		CHANNELS 3 Xrotation Yrotation Zrotation
		End Site
		{
			OFFSET 0.000000 21.880577 0.000000
		}
	}
}
MOTION
Frames: 4
Frame Time: 0.016667
1.320358 61.909019 0.507092 10.596957 67.290976 -12.464278 0.000000 -0.000001 -0.000000 -16.583211 1.639105 20.244213 52.587232 -5.968801 10.125668 -38.065191 4.705616 -12.839320 0.000000 0.000001 -0.000000 -0.000000 0.000000 -0.000000 -31.301043 5.120466 -15.627099 47.717570 8.980053 -6.555043 -22.815192 1.071830 19.061950 -0.000000 0.000000 0.000000 0.000003 0.000000 -0.000002 1.874399 -1.969682 0.709436 2.147804 -0.574859 -0.033124 2.136797 -0.620503 -0.146677 -4.452903 -10.379963 0.183234 -3.546767 -51.462351 5.883612 -0.000000 -0.000000 0.000000 -0.000000 -0.000000 0.000000 -0.000000 -0.000000 -0.000000 -0.000000 -0.000000 0.000000 -0.000000 0.000000 0.000000 -0.000000 -0.000000 0.000000 -0.000000 0.000000 0.000000 -0.000000 -0.000000 0.000000 -0.000000 -0.000000 0.000000 1.127384 -10.640397 -5.486602 -1.802098 -47.065440 -47.163160 0.000144 -106.321887 0.000140 -14.181017 -27.377422 4.759038 -9.674864 0.269252 1.575494 18.503635 20.929639 -3.451922 -0.000002 -0.000000 0.000001 -3.846433 2.878484 -61.548071 2.994981 5.108740 -60.739896 -0.000002 -0.000002 -0.000002 -2.841120 4.594559 -63.952120 4.026914 5.560382 -71.804863 0.000001 0.000001 -0.000003 -4.005805 6.210656 -77.776846 4.605487 5.717417 -77.688081 -0.000001 0.000001 0.000001 -0.923511 7.377206 -82.600872 4.957422 5.782650 -81.199563 0.000001 -0.000004 0.000002 0.000000 0.000001 -0.000000 0.469306 -2.168348 7.105748 -29.988369 -15.739975 41.708403 0.000094 109.347162 -0.000088 14.603131 20.324232 -39.470048 -6.752282 7.209120 -18.581253 15.979747 -27.517664 14.723402 0.000000 0.000001 -0.000000 -4.026018 10.918935 28.366781 3.771247 -4.572295 79.022256 -0.000000 -0.000000 0.000000 -4.881330 0.185788 47.726111 2.776643 -4.261379 66.161194 0.000001 -0.000001 0.000001 -3.940816 -1.274157 51.126404 3.609630 -4.538091 76.987345 0.000001 -0.000000 0.000001 -2.235441 -3.308466 56.826969 2.160906 -3.932899 57.559309 -0.000000 0.000001 0.000002 -0.000002 -0.000001 0.000002 0.000001 -0.000001 -0.000000 0.000001 -0.000001 0.000000 0.000001 -0.000001 -0.000000 0.000001 -0.000001 -0.000000 0.000001 -0.000001 -0.000000 0.000001 -0.000001 0.000000 0.000001 -0.000001 -0.000000 0.000001 -0.000001 -0.000000 0.000001 -0.000001 -0.000000 0.000001 -0.000001 0.000000 0.000000 -0.000001 -0.000000 0.000000 -0.000001 -0.000000 0.000000 -0.000001 -0.000000 
1.500457 63.034210 0.329501 9.103852 65.573149 -10.787591 0.000000 0.000001 -0.000000 -15.031023 3.650848 19.495761 49.885581 -5.689335 10.399498 -35.072291 4.581322 -13.134318 0.000000 -0.000001 0.000000 -0.000001 -0.000001 -0.000000 -29.522151 4.224605 -15.966095 42.486198 9.012635 -6.606649 -19.214856 4.086662 20.451765 -0.000000 0.000001 0.000000 0.000001 -0.000003 -0.000000 1.934970 -2.256228 0.552595 2.196507 -0.669207 -0.093631 2.178839 -0.721575 -0.214627 -4.181044 -10.086960 0.380456 -3.435687 -49.846140 5.967150 -0.000000 -0.000000 0.000000 -0.000000 -0.000000 0.000000 -0.000000 -0.000000 0.000000 -0.000000 -0.000000 -0.000000 0.000000 -0.000000 -0.000000 -0.000000 -0.000000 -0.000000 0.000000 -0.000000 -0.000000 -0.000000 -0.000000 0.000000 -0.000000 -0.000000 0.000000 1.159398 -10.584917 -4.968924 -3.440723 -46.440474 -48.700540 0.000132 -107.022268 0.000115 -13.940650 -26.498754 3.948673 -9.674866 0.269254 1.575495 18.506575 20.943329 -3.449984 -0.000001 0.000001 -0.000000 -3.845301 2.879136 -61.562537 2.996273 5.109465 -60.754423 0.000001 0.000001 -0.000002 -2.840557 4.596748 -63.966361 4.028349 5.560847 -71.819617 0.000004 0.000006 -0.000002 -4.004852 6.213114 -77.791012 4.606974 5.717729 -77.702937 0.000002 -0.000002 0.000002 -0.922245 7.378914 -82.615250 4.958885 5.782871 -81.214248 -0.000000 -0.000003 0.000001 -0.000000 0.000001 -0.000001 0.472923 -1.987567 7.167155 -29.704821 -14.959993 41.837801 0.000050 110.239615 -0.000050 15.232234 19.900569 -39.661440 -6.752284 7.209121 -18.581255 15.985356 -27.530476 14.722628 -0.000000 -0.000002 0.000000 -4.025366 10.917527 28.381019 3.772399 -4.572516 79.036763 -0.000000 0.000000 -0.000001 -4.881949 0.183405 47.740205 2.777739 -4.261865 66.176016 -0.000000 -0.000001 -0.000003 -3.941078 -1.276315 51.140587 3.610803 -4.538362 77.002098 -0.000001 0.000001 -0.000000 -2.235189 -3.310206 56.841268 2.161906 -3.933535 57.573891 -0.000000 0.000001 -0.000003 0.000000 0.000001 0.000003 0.000000 -0.000001 0.000000 0.000001 0.000000 0.000000 0.000000 -0.000001 0.000000 0.000000 -0.000001 0.000000 0.000000 -0.000001 0.000000 0.000001 0.000000 0.000000 0.000000 -0.000001 0.000000 0.000000 -0.000001 0.000000 0.000000 -0.000001 0.000000 0.000001 0.000000 0.000000 0.000000 0.000001 -0.000000 0.000000 0.000001 -0.000000 0.000000 0.000001 -0.000000 
1.692622 64.270882 0.161786 7.883520 63.567717 -9.338773 -0.000000 0.000000 -0.000000 -13.622058 5.605590 18.679570 47.276329 -5.102999 10.507551 -31.451051 4.354710 -13.388439 0.000001 0.000000 0.000000 -0.000001 0.000001 0.000001 -27.509806 3.228948 -16.122393 36.430364 8.999344 -6.695517 -15.001095 7.161390 21.493287 0.000000 -0.000001 -0.000000 0.000001 -0.000004 -0.000003 1.877402 -2.527607 0.322231 2.147873 -0.743420 -0.181091 2.123237 -0.800148 -0.306786 -3.798646 -9.756335 0.643418 -3.007114 -47.953143 6.067488 0.000000 0.000000 -0.000000 0.000000 0.000000 -0.000000 0.000000 0.000000 -0.000000 0.000000 0.000000 -0.000000 0.000000 0.000000 -0.000000 0.000000 0.000000 -0.000000 0.000000 0.000000 -0.000000 0.000000 0.000000 -0.000000 0.000000 0.000000 -0.000000 1.197098 -10.412343 -4.302574 -5.193338 -45.854256 -50.234119 0.000108 -107.756029 0.000101 -13.352817 -25.456279 3.281905 -9.674862 0.269256 1.575495 18.511329 20.965582 -3.446837 -0.000001 0.000001 -0.000001 -3.843464 2.880180 -61.586047 2.998390 5.110630 -60.778001 -0.000001 -0.000001 -0.000000 -2.839658 4.600298 -63.989481 4.030668 5.561601 -71.843550 0.000001 0.000002 -0.000001 -4.003304 6.217107 -77.814016 4.609383 5.718234 -77.727095 -0.000001 0.000000 -0.000001 -0.920190 7.381718 -82.638643 4.961304 5.783249 -81.238140 0.000001 -0.000004 -0.000001 -0.000000 0.000001 -0.000000 0.488557 -1.683415 7.375540 -29.457216 -13.864239 41.538209 0.000131 111.001639 -0.000136 15.563235 19.335501 -39.736114 -6.752284 7.209120 -18.581250 15.994449 -27.551286 14.721371 -0.000000 0.000001 0.000001 -4.024278 10.915237 28.404141 3.774282 -4.572880 79.060348 -0.000000 0.000000 0.000000 -4.882938 0.179535 47.763110 2.779532 -4.262652 66.200140 0.000001 0.000000 -0.000001 -3.941483 -1.279824 51.163625 3.612700 -4.538795 77.026051 0.000001 0.000002 -0.000004 -2.234769 -3.313040 56.864535 2.163531 -3.934569 57.597647 -0.000001 0.000001 -0.000003 0.000000 0.000001 -0.000002 -0.000000 0.000000 -0.000000 -0.000000 0.000000 0.000000 -0.000000 0.000000 -0.000000 -0.000000 0.000000 -0.000000 -0.000000 0.000000 -0.000000 -0.000000 0.000000 0.000000 -0.000000 0.000000 -0.000000 -0.000000 0.000000 -0.000000 -0.000000 0.000000 -0.000000 -0.000000 0.000000 0.000000 -0.000000 0.000000 -0.000000 -0.000000 0.000000 -0.000000 -0.000000 0.000000 -0.000000 
1.930601 65.856873 0.023436 7.061988 60.810964 -8.190212 0.000000 0.000001 -0.000000 -12.557218 7.555368 17.845964 44.818687 -3.865615 10.065406 -26.200203 3.812355 -13.650473 0.000001 -0.000001 0.000001 0.000001 -0.000003 -0.000001 -25.058077 2.088203 -15.745367 28.426100 8.757745 -6.971016 -9.293756 11.023907 21.770248 -0.000000 0.000000 -0.000000 -0.000001 0.000001 -0.000001 1.462585 -2.769007 -0.091582 1.806340 -0.774960 -0.347968 1.773442 -0.829132 -0.471257 -3.055414 -9.319768 1.116652 -1.591863 -45.242951 6.221002 0.000000 -0.000000 -0.000000 0.000000 -0.000000 -0.000000 0.000000 -0.000000 -0.000000 0.000000 -0.000000 -0.000000 0.000000 0.000000 0.000000 0.000000 -0.000000 -0.000000 0.000000 0.000000 0.000000 0.000000 -0.000000 -0.000000 0.000000 -0.000000 -0.000000 1.239726 -9.854055 -3.184280 -7.337280 -45.581438 -51.880321 -0.000054 -108.518408 -0.000050 -11.745927 -23.953229 2.992378 -9.674864 0.269252 1.575497 18.520714 21.009558 -3.440644 0.000000 -0.000006 0.000002 -3.839869 2.882224 -61.632458 3.002517 5.112943 -60.824576 0.000002 0.000000 0.000002 -2.837885 4.607311 -64.035175 4.035248 5.563097 -71.890876 0.000005 0.000000 -0.000001 -4.000273 6.225008 -77.859478 4.614132 5.719275 -77.774879 -0.000000 0.000002 -0.000001 -0.916157 7.387199 -82.684843 4.966055 5.783969 -81.285344 0.000003 -0.000004 0.000000 0.000003 -0.000003 0.000002 0.528483 -1.104086 8.063767 -29.166506 -11.793684 40.000275 0.000141 111.367075 -0.000118 15.073724 18.358090 -39.503304 -6.752282 7.209119 -18.581251 16.012458 -27.592443 14.718930 -0.000000 0.000000 -0.000000 -4.022151 10.910744 28.449826 3.777997 -4.573592 79.106964 -0.000000 0.000000 0.000000 -4.884899 0.171888 47.808360 2.783078 -4.264209 66.247781 0.000000 0.000000 -0.000003 -3.942288 -1.286745 51.209169 3.616437 -4.539652 77.073385 0.000001 0.000002 0.000002 -2.233947 -3.318623 56.910516 2.166754 -3.936606 57.644570 -0.000001 0.000001 -0.000001 0.000004 0.000001 0.000001 0.000001 0.000001 -0.000000 -0.000000 -0.000002 0.000000 0.000001 0.000001 -0.000000 0.000001 0.000001 -0.000000 0.000001 0.000001 -0.000000 -0.000000 -0.000002 0.000000 0.000001 0.000001 -0.000000 0.000001 0.000001 -0.000000 0.000001 0.000001 -0.000000 -0.000000 -0.000002 0.000000 0.000000 0.000001 -0.000000 0.000000 0.000001 -0.000000 0.000000 0.000001 -0.000000 
